<?xml version="1.0" encoding="UTF-8"?>
<svg id="Layer_1" data-name="Layer 1" xmlns="http://www.w3.org/2000/svg" viewBox="0 0 506.62 495">
  <defs>
    <style>
      .cls-1 {
        fill: #ffffff;
        stroke-width: 0px;
      }
    </style>
  </defs>
  <path class="cls-1" d="M506.62,20.35v390.03c0,11.24-9.11,20.35-20.35,20.35-5.63,0-10.72-2.27-14.4-5.95s-5.95-8.77-5.95-14.4V69.48L36.54,488.88c-8.5,8.29-22.11,8.14-30.42-.36v-.02c-8.29-8.5-8.14-22.11.36-30.41L433.82,40.7H96.23c-11.24,0-20.35-9.11-20.35-20.35,0-5.63,2.27-10.72,5.95-14.4,3.68-3.68,8.77-5.95,14.4-5.95h390.03c5.63,0,10.72,2.27,14.4,5.95,3.68,3.68,5.95,8.77,5.95,14.4Z"/>
</svg>