<?xml version="1.0" encoding="UTF-8"?>
<svg id="Layer_1" data-name="Layer 1" xmlns="http://www.w3.org/2000/svg" xmlns:xlink="http://www.w3.org/1999/xlink" viewBox="0 0 1020.98 966.3">
  <defs>
    <style>
      .cls-1 {
        fill: #151F30;
      }

      .cls-2 {
        fill: #151F30;
      }

      .cls-3 {
        fill: #5C9DF2;
      }
    </style>
  </defs>
  <path class="cls-2" d="m946.1,774.56c-115.43,115.44-304.66,101.16-442.7-36.89l-199.93-199.93,23.2-181.49,279.07,279.07c67.24,67.24,155.31,77.95,211.84,21.42,57.12-57.12,47-146.97-19.64-213.61l-199.93-199.94,24.39-182.67,279.07,279.07c138.05,138.05,161.26,318.34,44.63,434.97Z"/>
  <polygon class="cls-3" points="467.26 966.3 427.65 930.74 555.36 0 594.86 38.67 467.26 966.3"/>
  <path class="cls-1" d="m223.04,527.01l199.93,199.93-24.4,182.67L119.5,630.54C-18.55,492.49-41.75,312.2,74.87,195.57c115.44-115.43,304.66-101.15,442.71,36.89l199.93,199.94-23.21,181.48-279.07-279.07c-67.24-67.24-155.3-77.95-211.83-21.42-57.12,57.12-47.01,146.97,19.64,213.62Z"/>
</svg>